<svg width="512" height="512" viewBox="0 0 512 512" xmlns="http://www.w3.org/2000/svg">
  <!-- Background -->
  <rect width="512" height="512" rx="64" fill="#8b5cf6"/>
  
  <!-- Grid background -->
  <rect x="96" y="96" width="320" height="320" rx="16" fill="white" opacity="0.95"/>
  
  <!-- Sudoku grid lines -->
  <g stroke="#374151" stroke-width="2" fill="none">
    <!-- Horizontal lines -->
    <line x1="96" y1="202.67" x2="416" y2="202.67"/>
    <line x1="96" y1="309.33" x2="416" y2="309.33"/>
    
    <!-- Vertical lines -->
    <line x1="202.67" y1="96" x2="202.67" y2="416"/>
    <line x1="309.33" y1="96" x2="309.33" y2="416"/>
  </g>
  
  <!-- Thick 3x3 box borders -->
  <g stroke="#374151" stroke-width="4" fill="none">
    <rect x="96" y="96" width="106.67" height="106.67"/>
    <rect x="202.67" y="96" width="106.67" height="106.67"/>
    <rect x="309.33" y="96" width="106.67" height="106.67"/>
    <rect x="96" y="202.67" width="106.67" height="106.67"/>
    <rect x="202.67" y="202.67" width="106.67" height="106.67"/>
    <rect x="309.33" y="202.67" width="106.67" height="106.67"/>
    <rect x="96" y="309.33" width="106.67" height="106.67"/>
    <rect x="202.67" y="309.33" width="106.67" height="106.67"/>
    <rect x="309.33" y="309.33" width="106.67" height="106.67"/>
  </g>
  
  <!-- Sample numbers -->
  <g font-family="Arial, sans-serif" font-size="32" font-weight="bold" fill="#374151" text-anchor="middle">
    <text x="149.33" y="140">5</text>
    <text x="256" y="140">3</text>
    <text x="362.67" y="140">7</text>
    <text x="149.33" y="246.67">6</text>
    <text x="256" y="246.67">1</text>
    <text x="362.67" y="246.67">9</text>
    <text x="149.33" y="353.33">2</text>
    <text x="256" y="353.33">8</text>
    <text x="362.67" y="353.33">4</text>
  </g>
  
  <!-- Emoji accent -->
  <text x="256" y="80" font-size="48" text-anchor="middle">🧩</text>
</svg> 